<svg width="799.9999999999999" height="600" xmlns="http://www.w3.org/2000/svg">

 <g>
  <title>Layer 1</title>
  <text font-style="normal" font-weight="normal" transform="matrix(3.86766, 0, 0, 4.35469, -1098.94, -959.578)" xml:space="preserve" text-anchor="start" font-family="Noto Sans JP" font-size="24" id="svg_1" y="297.40647" x="371.35892" stroke="#000" fill="#000000">KB</text>
  <path id="svg_10" d="m246,301.00001l0,0c0,-86.7087 70.2913,-157 156.99998,-157l0,0c41.63897,0 81.57254,16.54101 111.01573,45.98423c29.44322,29.44322 45.98425,69.37677 45.98425,111.01578l0,0c0,86.70869 -70.2913,157 -156.99998,157l0,0c-86.70868,0 -156.99998,-70.29131 -156.99998,-157zm78.49999,0l0,0c0,43.35434 35.14567,78.5 78.49999,78.5c43.35435,0 78.49999,-35.14566 78.49999,-78.5c0,-43.35434 -35.14566,-78.5 -78.49999,-78.5l0,0c-43.35432,0 -78.49999,35.14567 -78.49999,78.5z" stroke-width="2" stroke="#000" fill="#fff"/>
 </g>
</svg>